<?xml version="1.0" encoding="UTF-8"?>
<svg width="730px" height="724px" viewBox="0 0 730 724" version="1.1" xmlns="http://www.w3.org/2000/svg" xmlns:xlink="http://www.w3.org/1999/xlink">
    <title>Logo</title>
    <g id="Logo" stroke="none" stroke-width="1" fill="none" fill-rule="evenodd">
        <g id="shutterstock_445185907" transform="translate(40.000000, 25.000000)">
            <path d="M649.668491,336.999431 C649.668491,522.554091 504.794264,674 324.834245,674 C144.874226,674 0,522.554091 0,336.999431 C0,151.44477 144.874226,0 324.834245,0 C504.794264,0 649.668491,151.44477 649.668491,336.999431 Z" id="Fill-1" stroke="#ECC900" stroke-width="19" fill="#0E1F2A"></path>
            <text id="Demeter" font-family="Nunito-Bold, Nunito" font-size="100" font-weight="bold" letter-spacing="2.8797619" fill="#FFE877">
                <tspan x="113.292319" y="562.119">Demeter</tspan>
            </text>
            <g id="Group-5" transform="translate(102.071486, 63.119000)" fill="#FFE877">
                <path d="M294.376909,34.0883228 L289.787978,22 C329.506049,42.0470274 333.848418,131.524084 259.72653,175.860306 C245.496536,184.372181 249.841298,210 249.841298,210 C244.061447,203.427813 239.662824,187.138031 244.02195,181.257905 C244.02195,181.257905 231.859009,182.869522 214,168.931312 C286.636529,187.384683 343.505041,71.4560392 294.376909,34.0883228" id="Fill-29"></path>
                <path d="M258.996469,73 C259.283402,59.6502081 242.027487,49.5577797 227,55.9885234 C241.78524,56.5272182 252.449946,62.1985102 258.996469,73" id="Fill-31"></path>
                <path d="M307,85.2252503 C299.017329,70.9413304 282.618902,70.0838382 271.71141,77.961221 L261.341376,109.268706 L244,110.954827 L250.283924,122 L266.76273,119.737808 L277.258731,82.9726796 C283.386697,76.1416057 293.672754,78.0345829 307,85.2252503" id="Fill-32"></path>
                <path d="M251,80 C249.071658,67.6715059 232.358172,60.5598935 221,68.0866231 L229.85966,69.0176022 C226.756458,77.2204143 240.311987,80.615393 243.686585,73.9965805 L251,80" id="Fill-33"></path>
                <path d="M303,97 C301.072848,84.6708992 284.359362,77.559637 273,85.0872097 L281.85966,86.0181429 C278.756458,94.2205512 292.311987,97.6141489 295.686585,90.9968761 L303,97" id="Fill-34"></path>
                <path d="M262,136.977494 L254.331296,129.846194 L246.924205,128.521809 L243.986553,125.275288 L224,124 C235.91198,133.027662 248.57824,137.353084 262,136.977494" id="Fill-35"></path>
                <path d="M251,145.463675 C238.482187,153.607299 230.482187,150.78648 227,137 C232.497141,142.730474 240.495968,145.55251 251,145.463675" id="Fill-36"></path>
                <path d="M182.640194,255 C158.646226,271.346327 161.430169,301.158856 177.258223,322.949554 C204.752211,323.67499 230.910001,316.838598 238,285.32658 C222.838845,281.665771 212.692626,286.501209 197.970472,296.101223 L183.449828,315.618329 L190.235165,292.534097 C193.10307,282.377995 185.959095,266.11334 182.640194,255" id="Fill-42"></path>
                <path d="M212.244215,219 C188.192206,230.427187 186.444822,257.993914 197.648705,280.136054 C222.425093,284.769808 247.073156,282.322334 258,254.633475 C244.804076,249.106102 234.930219,252.045731 220.233968,258.666244 L204.301236,274.349907 L213.745742,254.29731 C217.793387,245.457867 213.656993,229.604913 212.244215,219" id="Fill-43"></path>
                <path d="M250.064626,191 C226.840439,198.245503 221.77831,222.937605 229.129046,244.383518 C250.98031,251.744048 273.610085,252.688482 287,229.063106 C275.747081,222.378209 266.435025,223.769433 252.290664,227.871666 L235.884167,240.00643 L246.967426,223.092589 C251.749195,215.621875 250.004463,200.765204 250.064626,191" id="Fill-44"></path>
                <path d="M279.272237,173 C257.642358,177.249492 250.751254,198.673469 255.360488,218.385565 C274.375674,226.962738 294.698205,229.923284 309,210.225404 C299.481034,203.240458 290.952155,203.601789 277.806859,205.911939 L261.866093,215.135954 L273.456221,201.174354 C278.472504,194.996183 278.297713,181.656547 279.272237,173" id="Fill-45"></path>
                <path d="M312.531375,158 C292.425203,159.831085 284.076795,178.794184 286.368939,197.284551 C302.8541,206.951005 321.072199,211.598131 336,194.920896 C328.007559,187.618098 320.205128,187.13699 308.014431,187.999874 L292.605592,194.929274 L304.510072,183.24743 C309.676416,178.067734 310.806855,165.834171 312.531375,158" id="Fill-46"></path>
                <path d="M342.168203,146.064945 C323.813366,144.850445 313.585383,160.862063 313,177.963957 C326.450597,189.091042 342.179021,195.912503 358,182.917234 C351.852873,175.147813 344.901595,173.595617 333.808158,172.635595 L318.949996,176.719305 L331.334402,167.823426 C336.724257,163.861528 339.494911,152.924999 342.168203,146.064945" id="Fill-47"></path>
                <path d="M366.574786,137.059055 C349.852303,135.954838 340.533466,150.51054 340,166.058594 C352.254103,176.17337 366.584398,182.37527 381,170.560866 C375.399807,163.498927 369.065496,162.086779 358.957273,161.214712 L345.42117,164.926711 L356.70446,156.839943 C361.614992,153.238606 364.139345,143.295838 366.574786,137.059055" id="Fill-48"></path>
                <path d="M367,147 C377.499005,146.358464 387.16487,141.69138 396,133 C386.435121,134.293077 376.769256,138.960161 367,147" id="Fill-49"></path>
                <path d="M369,154.923301 C379.348915,155.528233 389.34931,152.554892 399,146 C389.489193,146.06224 379.489983,149.036674 369,154.923301" id="Fill-50"></path>
                <path d="M374,163.24015 C384.138484,165.128053 394.472212,163.498078 405,158.349155 C395.589243,157.214701 385.256699,158.844676 374,163.24015" id="Fill-51"></path>
                <path d="M257.270698,268 C235.642165,272.331423 228.75082,294.166722 233.36086,314.257254 C252.376088,323.001419 272.697968,326.017391 287,305.941209 C277.481122,298.822225 268.951125,299.190551 255.807532,301.545209 L239.864478,310.9471 L251.455977,296.716306 C256.47153,290.420077 256.29723,276.823092 257.270698,268" id="Fill-52"></path>
                <path d="M280.016528,245 C259.871719,248.574423 253.124349,268.225483 257.080035,286.479139 C274.58812,294.694642 293.401954,297.749321 307,279.808693 C298.27779,273.213847 290.354406,273.411113 278.119768,275.332986 L263.170326,283.586289 L274.156875,270.893897 C278.91499,265.275934 278.970247,252.968625 280.016528,245" id="Fill-53"></path>
                <path d="M309.149152,231 C290.516774,231.716345 281.898654,248.679723 283.112321,265.716634 C297.846798,275.354082 314.421584,280.478794 329,265.922998 C321.983297,258.855616 314.811734,258.040833 303.526186,258.250755 L288.980182,263.85817 L300.52503,253.73209 C305.540562,249.235958 307.177993,238.089917 309.149152,231" id="Fill-54"></path>
                <path d="M336.222694,222.060565 C319.092854,220.928417 309.546903,235.847996 309,251.784323 C321.553313,262.153443 336.232395,268.509024 351,256.400379 C345.262971,249.161674 338.775314,247.71369 328.420528,246.819633 L314.553919,250.624235 L326.112863,242.33477 C331.142919,238.644355 333.729493,228.453803 336.222694,222.060565" id="Fill-55"></path>
                <path d="M363.042405,217.353343 C347.880679,214.720116 337.976735,227.205702 336,241.452784 C346.218696,251.942407 358.707418,259.03168 373,249.561681 C368.564864,242.524111 362.91722,240.613518 353.772733,238.832783 L341.057485,240.935757 L352.134594,234.590762 C356.963169,231.754331 360.220371,222.854263 363.042405,217.353343" id="Fill-56"></path>
                <path d="M386.611239,216.103589 C373.402254,211.668527 362.775521,221.236024 359,233.462916 C366.676774,244.1005 376.865817,252.071656 391,245.76482 C388.016829,238.968065 383.227148,236.498542 375.287049,233.655133 L363.603455,233.718425 L374.4176,229.702959 C379.140856,227.889788 383.310179,220.536306 386.611239,216.103589" id="Fill-57"></path>
                <path d="M407.023261,215.003688 C395.051769,210.970714 385.421269,219.669079 382,230.783721 C388.956934,240.454676 398.192355,247.702339 411,241.967333 C408.29695,235.788116 403.956974,233.543678 396.760634,230.957899 L386.17133,231.016348 L395.971655,227.36563 C400.253843,225.717371 404.031273,219.031986 407.023261,215.003688" id="Fill-58"></path>
                <path d="M407,221.366734 C414.849431,222.940191 422.849034,221.581402 431,217.291528 C423.714307,216.344669 415.714704,217.704618 407,221.366734" id="Fill-59"></path>
                <path d="M406,227.354392 C413.490154,229.90049 421.490546,229.49174 430,226.130511 C422.983639,224.289358 414.983247,224.696923 406,227.354392" id="Fill-60"></path>
                <path d="M407,233.670198 C414.084479,237.217273 422.084872,237.930454 431,235.809741 C424.288016,233.021744 416.288802,232.308563 407,233.670198" id="Fill-61"></path>
                <path d="M292,32.275217 C292,32.275217 277.783604,21.4771047 256.330595,19.39769 C234.876392,17.3182752 202.869492,27.7177432 180.883711,53.6439869 C144.57283,96.4581431 158.712775,172.305903 145.897592,200.527045 C133.082408,228.748187 85.4746229,285.781853 76.1332048,309.592768 C59.9696844,350.790799 76.8105173,391 76.8105173,391 C76.8105173,391 51.0702514,342.640738 61.478407,308.283108 C71.8853681,273.924281 125.672585,234.362727 137.888102,192.657113 C154.01698,137.589134 134.428671,91.7546194 172.397594,49.1164414 C200.357343,17.7157224 240.801383,11.8473913 259.08046,14.6043816 C277.360731,17.3601748 292,32.275217 292,32.275217" id="Fill-64"></path>
                <path d="M285.950856,20.2897231 C287.404056,22.1410775 256.540583,-3.78864801 205.060066,8.7833401 C155.996374,20.7657173 136.475499,78.5942315 130.324776,104.802617 C124.174052,131.009806 125.737108,173.291966 114.124647,195.154214 C102.510992,217.017657 50.7868822,281.838981 41.3978047,320.944657 C32.0087271,360.049137 53.9141866,409 53.9141866,409 C53.9141866,409 22.3163523,368.107552 31.7627459,320.656429 C43.1757948,263.332612 97.9830276,210.322643 106.025179,185.147571 C114.067331,159.973696 112.249936,123.253971 119.432347,95.1511762 C126.615953,67.0483816 159.881922,11.9203573 201.096903,3.50913276 C260.118056,-8.53423865 280.827044,13.762144 285.950856,20.2897231" id="Fill-65"></path>
                <path d="M176,8 C165.939875,12.7280522 118.95434,42.0629787 109.552208,80.4649774 C100.595119,117.043538 99.3186116,156.919324 89.3123221,183.334123 C75.9131778,218.7074 19.3532364,280.570657 13.1680957,312.137148 C5.04606089,353.594122 32.223593,403 32.223593,403 C32.2152186,402.990453 -11.0867481,355.756472 2.71556687,307.391195 C13.0173554,271.287588 71.9987135,208.38373 81.6221703,184.026266 C92.4826553,156.535065 96.0394103,98.1182021 100.907367,80.3909898 C113.916501,33.0066465 160.356499,12.1349573 176,8" id="Fill-66"></path>
                <path d="M176.159137,93.9420068 C168.911315,118.985182 172.684235,177.057163 167.460559,196.146109 C159.009933,227.026271 122.527642,268.431913 109.99654,293.036028 C87.6498858,336.914523 109.748589,373 109.748589,373 C109.748589,373 98.3392303,336.778139 119.60944,297.769981 C142.44127,255.900156 172.573372,221.743193 177.429889,202.985636 C182.285215,184.228079 178.306065,133.172686 184.62526,98.0646257 C195.781898,36.0746019 251.796352,32.3192621 290,31.880202 C273.825914,28.4395021 198.771624,15.8036631 176.159137,93.9420068 Z" id="Fill-67"></path>
                <path d="M143.080612,270 C150.910941,291.81866 162.549943,308.819455 178,321 C154.073532,312.189099 140.740199,298.231355 138,279.127959 L143.080612,270" id="Fill-68"></path>
                <path d="M128.891756,286 C136.876043,308.11736 149.246168,319.651493 165,332 C140.603095,323.067269 131.935758,311.79533 124,297.004912 L128.891756,286" id="Fill-69"></path>
                <path d="M287.77838,300.002948 C267.840814,299.738008 257.675085,317.375408 258.007917,335.637309 C273.194852,346.743478 290.607448,353.131594 307,338.394335 C299.906378,330.457978 292.293156,329.193602 280.229809,328.792644 L264.377211,333.976706 L277.281017,323.800191 C282.891264,319.277295 285.272566,307.466198 287.77838,300.002948" id="Fill-70"></path>
                <path d="M312.95138,282.014507 C294.623123,281.443935 284.990395,297.795892 285,314.899747 C298.782847,325.544778 314.690006,331.80777 330,318.273615 C323.607819,310.728046 316.629288,309.418874 305.542699,308.849511 L290.882736,313.447932 L302.913734,304.127788 C308.145229,299.98389 310.525476,288.961701 312.95138,282.014507" id="Fill-71"></path>
                <path d="M340.234403,276.38185 C323.845057,273.535763 313.139248,287.032968 311,302.434397 C322.047801,313.774123 335.549341,321.440468 351,311.201791 C346.206122,303.594539 340.100475,301.528714 330.214971,299.602782 L316.468297,301.876033 L328.444023,295.016482 C333.663598,291.949703 337.185166,282.328483 340.234403,276.38185" id="Fill-72"></path>
                <path d="M336,294.959693 C345.084441,306.443941 356.784745,314.794568 372,306.899452 C368.313736,299.450078 362.888829,296.958812 353.967195,294.22941 L341.088356,294.979233 L352.77651,289.847713 C357.879447,287.540849 362.045629,279.051005 365.428147,273.888956 C350.602902,269.68067 339.446912,281.029364 336,294.959693 Z" id="Fill-73"></path>
                <path d="M389.215512,274.460016 C376.384627,269.357328 365.3746,278.344773 361,290.33359 C368.034749,301.331871 377.692584,309.802618 392,304.247522 C389.406803,297.317343 384.800262,294.611228 377.097188,291.365795 L365.538393,290.826477 L376.44321,287.382222 C381.209958,285.820223 385.718462,278.7067 389.215512,274.460016" id="Fill-74"></path>
                <path d="M411,277.521074 C400.442846,271.177077 389.517107,277.63293 384,287.6929 C388.641135,298.47228 395.940513,307.370125 409.284215,304.432435 C407.973173,297.900048 404.305988,294.843438 397.99339,290.871963 L387.917963,288.769072 L397.975894,287.233702 C402.380249,286.511937 407.335148,280.810816 411,277.521074" id="Fill-75"></path>
                <path d="M429,279.353486 C419.22584,273.431621 409.109247,279.457167 404,288.846312 C408.297597,298.906972 415.056211,307.211085 427.412247,304.470776 C426.198919,298.372895 422.801839,295.51926 416.956775,291.813272 L407.626949,289.85057 L416.941372,288.417122 C421.020949,287.744402 425.607659,282.424127 429,279.353486" id="Fill-76"></path>
                <path d="M427,285.938201 C433.634157,288.432175 440.968292,288.663596 449,286.632464 C442.743494,284.719108 435.410562,284.487687 427,285.938201" id="Fill-77"></path>
                <path d="M425,291.166431 C431.306058,294.669718 438.638174,295.771632 447,294.473315 C440.988492,291.650588 433.656376,290.548674 425,291.166431" id="Fill-78"></path>
                <path d="M425,298 C430.645213,302.181285 437.645613,304.176822 446,303.987724 C440.543241,300.499427 433.542841,298.50389 425,298" id="Fill-79"></path>
                <path d="M228.272365,293 C206.64332,297.330325 199.750625,319.168508 204.360774,339.257102 C223.376453,348.001464 243.698815,351.017504 258,330.940869 C248.480896,323.821724 239.951883,324.190059 226.807979,326.54477 L210.865732,335.945677 L222.456321,321.715758 C227.471992,315.419387 227.297688,301.822095 228.272365,293" id="Fill-80"></path>
            </g>
        </g>
    </g>
</svg>